<mxfile host="app.diagrams.net" modified="2021-01-30T02:47:38.454Z" agent="5.0 (Windows NT 10.0; Win64; x64) AppleWebKit/537.36 (KHTML, like Gecko) Chrome/87.0.4280.141 Safari/537.36" etag="-4iL6cBiOkLDjj-EcF4w" version="14.2.9" type="github">
  <diagram id="wFE0QG_FPsp0jaGvCLVb" name="Page-1">
    <mxGraphModel dx="1422" dy="762" grid="1" gridSize="10" guides="1" tooltips="1" connect="1" arrows="1" fold="1" page="1" pageScale="1" pageWidth="850" pageHeight="1100" math="0" shadow="0">
      <root>
        <mxCell id="0" />
        <mxCell id="1" parent="0" />
        <mxCell id="m1ZqviDPPXVjj4WMnXXK-11" style="edgeStyle=none;rounded=0;orthogonalLoop=1;jettySize=auto;html=1;startArrow=none;startFill=0;endArrow=none;endFill=0;" edge="1" parent="1" source="m1ZqviDPPXVjj4WMnXXK-5" target="m1ZqviDPPXVjj4WMnXXK-7">
          <mxGeometry relative="1" as="geometry" />
        </mxCell>
        <mxCell id="m1ZqviDPPXVjj4WMnXXK-5" value="" style="shape=image;verticalLabelPosition=bottom;labelBackgroundColor=#ffffff;verticalAlign=top;aspect=fixed;imageAspect=0;image=data:image/png,iVBORw0KGgoAAAANSUhEUgAAAGoAAAAoCAYAAAAWsW/wAAAGU0lEQVR4Ae2az2skRRTHg/4D4jkHD16Sk+AlN72YHP1B4knYkFzEi4ZdvE4OXqIkCIJiEjCstwTWPUYRFHETc3JdAgb8SUDYmy7q+clnhu/M65fq7urJBGd2+0FT1VWvXlV9v/1eve6ZKWtlIhCYmohVtou0lqgJeQhaoh5qov59YPblp2abq2ZvPGv2ypNm84/1Luq00YcOuq1cGoFmHvXrvR4BkPLCVN6FLqQxtpWhEcgn6uPrecRUEYiNVoZCoJ4oPIFQVkVAkz5std7VmKxqou590zt/mhCRo8s5hu1WshEoJ4qnHkBzgB9GB9utZ42AqGHC3WtPmd3smL17zez1Z3okU979yuy95YukM0crWQikPWrYxOGjt8x++Nrsiz2zX+72FvD3n4OFQGT0vjFOMI6Ojmx2dtY2NzcHe6ipLS4u2tzcnD14MNrXkotEEY4imLn3EOQ95+UnzO7/PtjajefTtsc0BELQ9PS0AX6uoM8FyX3ZedvsnVfNvr3Vb2pauUgU7zy5xEQ9SFHIU1/nJbM7t80o1RZL5hxDGQlR/sFl3z9/398pXnd8fNy/r6oUieIrQpOXWQ843oP4ttw6c47hF4yREHXt6SImn3/S52Ntba3rfTmhtUgUn3xywY16hDXOp9iee8/cYyYjIerDNweYLDxu9sdP/V0SUnNDa5GopmGPMNd5sZfp4dJkdyzs+nNmeFguSehlhL/z83M7PT3tbpSwsbW1Zaurq91L7UJhf3/feGLpR69wZkjJlfSvr6/b0tJSVx97VUSxlt3d3a595mE+JHlG3f7AbPuG2Y/fdXWYizWRdKBPyT02y6RIVFlKrrRbyQAlpNTJnc/MNAYbEFhGXkaqro3t7Ox0szGBQglYCABLz/dTh7SYjXEPOVGX+4WFheQTDylkg3GMt+MfjJOTEzs4OOijJU+K41dWVvo6sVIkKvWCC8A+xXaHYTRWeu/HUE+l6cxdI3Fj3LNpNghBgO4BnJmZsfn5+QKgkOXF90Mw9iLRtEkgSevAPn3ehvo8UejRvre31zXDg8Y4tcuOH6P5VBaJSiUSpNyjllvvX/Qs5q4RgUCZOoB1ONN/eHjYt0ZIgUyNV5hUaKMd8Lx4WyLKPwiQ470TkAU89jzoat/e3vZTdMlCV/YLneGmnigShJSQbnMOAXoUyOX8IjVNySWJSm0M0ESEwqCfGrLU3+l0ul3ynJQ+CurXfJApG6nzxPdfLVGp0Afg//zl91zM7jiDovh3KX2hkA62fL/OrAahL+VNACMQOVs4L+KlsAjwnjgPqpZJKY8TUfJK3Xtd1bUGb3P0HlWWTEQyOLOU1d1c1xoHpX/JiyT7PpFEmZFMCIQUUQJVOlUlgHtiFQoHG+jVpCNiKLGbml9jRcrVElWWnkeitKr7v6l2sSRp8EmINJQFepKoZ6TnAj8FlD/k6S+7CE94E+TIngdVy6RUKItEQXSZpGyKvNGdUVUvvNEzylZa1Y4NeWIkKuOFVyCkiPLA+0SiajkCMGWPcfIgEYUeayCE+kRCc8gD0fHka57REVX1CYkv41EIY/6jq/ppoy9KKomAsMxPSFVEMZXSZM6oCCTAkRx4UpTZAXwMf95DRZQ/12ICwnxKPq6eKHZbFv4ANKbqvPQSyrgghkv38YWYsdGLdJ8R9lhaHVH+iQY0vjTo64XG0i4BeD3tkIW+vjZIn1JEMY6MUX0kK9hnnBIV9V2tR7GSup858KxUGISYSA720CXhECmpMvNnDoHA2VEm3hOkrxJSPIDYwJNElvRUqt0Theco+5OeSulz7+dRe1noqzrztM/ie5Ra63445JyBsJh6azwl4Q+CUl8hPFkNfjiEIDYVw5qfljrgE5oEEEDjCWXj8CyvTwhV0sG4GBaZgwdCoZZ5WBd2aPfhFd2NjQ1bXl62s7OzwlIhk3Ep+wVFs4q/NJel6h5k6pCmcKeyLGGIYzNS8rjgR/U+7VGgQThKvQBHsIe9x3ZmyHtUyfH7LicKrfbvYh6r/7VeTRRL46nPDYM53oWt1pMak15PlEzWJRg5JDVIHDRtW/YQyCcKfTyBd57UzyFlRKHLmNaLLvXMNSNKU/EFg08+EEAoIzGAEC7qtNGHzhj+aUXbmKRyOKImaYcPyVpboiaEyJaolqgJQWBClvkfvpnz878J0m0AAAAASUVORK5CYII=;imageBorder=#000000;" vertex="1" parent="1">
          <mxGeometry x="195" y="110" width="106" height="40" as="geometry" />
        </mxCell>
        <UserObject label="" link="https://www.reddit.com/r/wallstreetbets/" id="m1ZqviDPPXVjj4WMnXXK-7">
          <mxCell style="shape=image;verticalLabelPosition=bottom;labelBackgroundColor=#ffffff;verticalAlign=top;aspect=fixed;imageAspect=0;image=data:image/png,iVBORw0KGgoAAAANSUhEUgAAAJwAAAAiCAYAAACqeLBIAAAJbElEQVR4Ae1bC1BU1xkWLJF9YKiP1CSSGF+xaVCbKOM4iihksSCwQowKRgmo0cUnQkFBFgWiE1MF6wsfQQSCSAR5CYi21rY2Ia2PaBIbQSlNYmumqFhjkiZ+nf86Pz2eWWDXRcaUe2Yu595zzv//3/n+75579+zSDWpRGehEBrp1Yiw1lMoAVMGpIuhUBlTBdSrdajBVcKoGOpUBuwV37UYzct8tgykuBZOCIzDCaypemGSET0g4TLHJyCksBY1Ri8oAMWCX4DJ25mLExKl4cVIAfAIMWDDXA5uTh2H/pkEo2ToIRZsHYc+6wUhYPgLbMjNUxlUG7k9wdZcbMX3uCnj4TIGv8SUsWeCBiu1uuHioN/5Z7YJrx3Ro/q0ON5VDjy8qXfH7rH6IjzXiYv1llfYuzIDNKxyJzTskEj+fGICI8LEoznBDY6ken5VpcfmQFp8e1OKj/Rqc3qfBJ/u1uFqlw+3f6XHruB4XD/4Y4eE+uHipoQtT3rWnbrPgps+NxvjJk7E7ZQj+ktMbH+bpcTZXiz/t0uBUtgYNh7S4dlSH60d1uHBAiz/u0uDTQi2uVurw18JHYV40AK/OW9i1We/Cs7dJcBmZORjt7Y9ZYWNxPLMPzubocGafFn/O0qL2bS2ObdGgKl2DD7I0uFSkQ0OxDh9kaVG0XoPDG/Uo2eCKtYvc4DnZAHr/U0vXY8BqwdEnzXG+/vAP8sLqJc+jOsMFJ7ZrcXybFlWbNDi1V4tzuTqUbdBgZ7wGB9e54EiGKyo39sL2mL7YsHAIdqwYjYI0d/gGGDDcK1j99Nr19Gb9h4bcwiKYIkahPONxXMh3QX2hHmeydTi2WYuCFGdkr3ZGXrIz8tdokbXqMWSveg4V6z1xcksA/r5/CW6Wr8b10jic2+sLY8hkPO9pVLZT7OW8rq4OBoMBtbW19rq6x76pqQlhYWEoKipS2sk/xaF4D3N52HFavcJFxa3BJD8frDINQ9lbrih9U4u8pL4oSvHA6V0zUf9OOBryQ9FYEI7PD5jwZVE0mstW4lZFIv5TvQbf16Ti2yozGt6Zg5CXjYrgaO/O3kKCiI+Px+3bt+11dY+9PYIjLISJxXqP4w68YIzizWav4B40dqsFp2zqTgjES1O8sSvpSVS85YLitKdwcnMoblWY8XVlMr6uNOOrw0n4qiIZtyqS8e9ys3J8W52C24fXoKk4ARf2mhAYGIifjvWDV9Acu+h/kORwMlk0tiTyQeISCWOM/5eCo3cuegyO9zVg/dIByE7sifwkN7y35VVcL0nE5wVxOJ25CCc3v47jG+ehZkMEytfNQdHaWfg4axlqty7EnthgpM01wP1nz+Gxp4dh6GgfkT+L55w8WjHoESc+1ujxFhoa2vKYS09PV8ZQIqjw45ZFQ200hldESlT//v1bDurjwslkW1lw3M/2hI3aOKbczvapqalKPI4lj+d2xkHx2RfVLC4Zuzgn4ig3N7fFjrGxz9Ziyu2iHeGyhIN9WltbvcKx4DwNPkicNwAB4/pgxsTBWBY8BmvmeGPKmGfRv29PuOo1cNU7K8ejurv1kP59MPjJ3uip7QG95hE4OTnBWdcTz7iPaRcnC06cPBtRMphoaiPCRAFysngMi4SSJY/lBHJCeWxrgqMEsF+KTdcsFtmW+tk/+6M2eZx8TTbiDSZfs0AYsxhHxsJY5RjtXbNPGYelfNDY9orVgqNHKq1w9DXWZH9vmGZ5oyR1Fi5kLcMXB+JR8cZsjB/+jCImBwcHdOvWTTkcHRzgPrAfRj77NJyde7S0a/SuGOUV0B4+5d2MyGIC2YCF2FoCuZ/udJPJ1LL6iIJkX1S3R7yYbPbNSRT9WPJFbaI9jyfscuJontR25coVRdDivBkjt7UmOFEcFEuMI54zDo5J/jmGyCudyz7Z1tbaasHRC/5dwQUjdPp0vJcZjY+zonGjZDXuHE1DU3EiNkYF4Sd9eqG7o2OL2DQ9nBAf5oWkSH8MfOoJPOLkBEfH7nDp1Q/hi+LaxcvJZZLZQF6huJ3G0cH9lGhKINVEnCgSGic+JuiciZaJlwXD/WwvJoT72Bdhk+2pjfrZXqxFwYntfM5c2CI4xtdWTMJtCTthlbkS58bcW1NbLTj6Rcjdd7gQbE+Yh9ptUWjIi8GtcrMiuDs1qXh/22L4jX8ROuce+FF3R2h7OOGFoU/g9M7FKH7jNSRGBmDYQDfoXXri8UHuyi9J2gPZmuBowqJ42A8LrLq6uqWfyOKDiZIFIBMtX8vjOR7VjJHxyLY0xpI9YZFXOPbLPllc3C7WtgiO47QVk3xbwi7GpHPywQKW+9q7tlpwtPFL73GevsHITIjE+1ujlMfpzTIzvqlcCxJcc5kZf8hYgPlGTxhGD0X0y+NwZudiNB1ajU/2xeDKu6tQnxuDRWFBGOk5xaqN39aIp0SweMRJEmH0CKVHJ/dTsnl1oHMqMmmcPLaRiZcFI8aXMcq2FE+2pzZL40S/sg3PjbBSYcw8J45Dc5Xn0dbNIMa0hIn8sz3FIN8sYAWIDX+sFhz5pK+jPLynYmnETJzPWoHG/Dhl+6O5NAnfVafg+yOpyvbHZwXxuJwXi38UrkRzuRl/y4/Dl8WJ+KZqrbJlMj9sGtJ3ZFsFU04mGcnEi454vHgHMokiSTyOhUiE8idIIljsJ4I5ueT31KlToBWUzkV7suFCSaQ+jimLh8exX9EPx6cxFJv7qKZ30vPnzyvmIkYWBMfhuYgYrI0pYz9x4oQiOMYhcss+ra1tEhw5pS/vPSYZkR4zGx9l/xKNhQk4tycaN8rM+O5ICnA0reWgVY9EdvVgAm6WmxUxfvh2NExRS63FZ3EckcqJtDhAbXxoGbBZcPTzJB/6eZKXEV6GQPj8Ighh06biN5sW4l/FCYroSGh3av4nvLvfMqxFY8FKxC+cjbpL9/+bOL6r6S5Uyw+PAZsFR1Mk0b0SGY3hE4IwcoIRoyYaMSXAiLSoGaj51QKc3b0M9TmxaMiLw6WcWJzdvRzlby5A7OLX1R9g/vA00qGI70twjIDe6XhDeLhnEMZ4B8HPLxARM4IRE/kKVs2fieWvTUPEzBBk/HoHm6l1F2bALsERb/I/0ZAA6aCNYtq7o+0U9Z9ourDCpKnbLTjJn3qpMtAmA6rg2qRH7exoBlTBdTSjqr82GVAF1yY9amdHM6AKrqMZVf21yYAquDbpUTs7mgFVcB3NqOqvTQb+C++lKIqxOfrJAAAAAElFTkSuQmCC;imageBorder=#000000;" vertex="1" parent="1">
            <mxGeometry x="170" y="170" width="156" height="34" as="geometry" />
          </mxCell>
        </UserObject>
      </root>
    </mxGraphModel>
  </diagram>
</mxfile>
